<?xml version="1.0" encoding="utf-8"?>
<!-- Generator: Adobe Illustrator 22.0.0, SVG Export Plug-In . SVG Version: 6.00 Build 0)  -->
<svg version="1.1"
	 id="svg2" inkscape:output_extension="org.inkscape.output.svg.inkscape" inkscape:version="0.46" sodipodi:docname="standard2010.svg" sodipodi:version="0.32" xmlns:cc="http://creativecommons.org/ns#" xmlns:dc="http://purl.org/dc/elements/1.1/" xmlns:inkscape="http://www.inkscape.org/namespaces/inkscape" xmlns:rdf="http://www.w3.org/1999/02/22-rdf-syntax-ns#" xmlns:sodipodi="http://sodipodi.sourceforge.net/DTD/sodipodi-0.dtd" xmlns:svg="http://www.w3.org/2000/svg"
	 xmlns="http://www.w3.org/2000/svg" xmlns:xlink="http://www.w3.org/1999/xlink" x="0px" y="0px" viewBox="0 0 800 600"
	 style="enable-background:new 0 0 800 600;" xml:space="preserve">
<style type="text/css">
	.st0{fill:#008000;}
	.st1{fill:none;stroke:#000000;}
	.st2{fill:#FFFF00;}
	.st3{fill:#FF00FF;}
	.st4{fill:#0000FF;}
	.st5{fill:#00FF00;}
</style>
<defs>
	
	
		<inkscape:perspective  id="perspective10" inkscape:persp3d-origin="372.04724 : 350.78739 : 1" inkscape:vp_x="0 : 526.18109 : 1" inkscape:vp_y="6.1230318e-14 : 1000 : 0" inkscape:vp_z="744.09448 : 526.18109 : 1" sodipodi:type="inkscape:persp3d">
		</inkscape:perspective>
	
		<inkscape:perspective  id="perspective3292" inkscape:persp3d-origin="372.04724 : 350.78739 : 1" inkscape:vp_x="0 : 526.18109 : 1" inkscape:vp_y="0 : 1000 : 0" inkscape:vp_z="744.09448 : 526.18109 : 1" sodipodi:type="inkscape:persp3d">
		</inkscape:perspective>
	
		<inkscape:perspective  id="perspective4008" inkscape:persp3d-origin="372.04724 : 350.78739 : 1" inkscape:vp_x="0 : 526.18109 : 1" inkscape:vp_y="0 : 1000 : 0" inkscape:vp_z="744.09448 : 526.18109 : 1" sodipodi:type="inkscape:persp3d">
		</inkscape:perspective>
	
		<inkscape:perspective  id="perspective2567" inkscape:persp3d-origin="372.04724 : 350.78739 : 1" inkscape:vp_x="0 : 526.18109 : 1" inkscape:vp_y="0 : 1000 : 0" inkscape:vp_z="744.09448 : 526.18109 : 1" sodipodi:type="inkscape:persp3d">
		</inkscape:perspective>
	
		<inkscape:perspective  id="perspective2624" inkscape:persp3d-origin="372.04724 : 350.78739 : 1" inkscape:vp_x="0 : 526.18109 : 1" inkscape:vp_y="0 : 1000 : 0" inkscape:vp_z="744.09448 : 526.18109 : 1" sodipodi:type="inkscape:persp3d">
		</inkscape:perspective>
	
		<inkscape:perspective  id="perspective2579" inkscape:persp3d-origin="372.04724 : 350.78739 : 1" inkscape:vp_x="0 : 526.18109 : 1" inkscape:vp_y="0 : 1000 : 0" inkscape:vp_z="744.09448 : 526.18109 : 1" sodipodi:type="inkscape:persp3d">
		</inkscape:perspective>
</defs>
<sodipodi:namedview  bordercolor="#666666" borderopacity="1.0" gridtolerance="10000" guidetolerance="10" id="base" inkscape:current-layer="layer1" inkscape:cx="387.45314" inkscape:cy="364.53128" inkscape:document-units="px" inkscape:pageopacity="0" inkscape:pageshadow="2" inkscape:window-height="956" inkscape:window-width="1270" inkscape:window-x="1280" inkscape:window-y="0" inkscape:zoom="0.83977198" objecttolerance="10" pagecolor="#000000" showgrid="false">
	</sodipodi:namedview>
<rect id="use2405" y="0" sodipodi:insensitive="true" class="st0" width="800" height="600">
</rect>
<g id="g3320" sodipodi:insensitive="true">
	<rect id="rect3195" x="0.5" y="400.5" class="st1" width="199" height="199"/>
	<rect id="rect3197" x="200.5" y="400.5" class="st1" width="199" height="199"/>
	<rect id="rect3199" x="400.5" y="400.5" class="st1" width="199" height="199"/>
	<rect id="rect3201" x="600.5" y="400.5" class="st1" width="199" height="199"/>
	<rect id="rect3203" x="0.5" y="200.5" class="st1" width="199" height="199"/>
	<rect id="rect3205" x="200.5" y="200.5" class="st1" width="199" height="199"/>
	<rect id="rect3207" x="400.5" y="200.5" class="st1" width="199" height="199"/>
	<rect id="rect3209" x="600.5" y="200.5" class="st1" width="199" height="199"/>
	<rect id="rect3211" x="0.5" y="0.5" class="st1" width="199" height="199"/>
	<rect id="rect3213" x="200.5" y="0.5" class="st1" width="199" height="199"/>
	<rect id="rect3215" x="400.5" y="0.5" class="st1" width="199" height="199"/>
	<rect id="rect3217" x="600.5" y="0.5" class="st1" width="199" height="199"/>
</g>
<rect id="rect3176" x="194" y="129" class="st2" width="3" height="70"/>
<rect id="rect3335" x="394" y="129" class="st2" width="3" height="70"/>
<rect id="rect3337" x="594" y="129" class="st2" width="3" height="70"/>
<rect id="rect3339" x="794" y="129" class="st2" width="3" height="70"/>
<rect id="rect3343" x="194" y="329" class="st2" width="3" height="70"/>
<rect id="rect3345" x="394" y="329" class="st2" width="3" height="70"/>
<rect id="rect3347" x="594" y="329" class="st2" width="3" height="70"/>
<rect id="rect3349" x="794" y="329" class="st2" width="3" height="70"/>
<rect id="rect3351" x="194" y="529" class="st2" width="3" height="70"/>
<rect id="rect3353" x="394" y="529" class="st2" width="3" height="70"/>
<rect id="rect3355" x="594" y="529" class="st2" width="3" height="70"/>
<rect id="rect3357" x="794" y="529" class="st2" width="3" height="70"/>
<g>
	<rect x="60" y="49.7" width="80" height="80"/>
	<rect x="65.3" y="57" class="st3" width="25" height="20"/>
	<rect x="65" y="77" class="st4" width="70" height="26.6"/>
	<rect x="110" y="57" class="st3" width="25" height="20"/>
	<rect x="110" y="103.6" class="st3" width="25" height="18.6"/>
</g>
<g>
	<rect x="260" y="49.7" width="80" height="80"/>
	<rect x="265.3" y="57" class="st3" width="25" height="20"/>
	<rect x="265" y="77" class="st4" width="70" height="26.6"/>
	<rect x="310" y="57" class="st3" width="25" height="20"/>
	<rect x="265" y="103.6" class="st3" width="25" height="18.6"/>
</g>
<g>
	<rect x="460.4" y="49.7" width="80" height="80"/>
	<rect x="465.7" y="57" class="st5" width="25" height="20"/>
	<rect x="465.4" y="77" class="st4" width="70" height="26.6"/>
	<rect x="510.4" y="57" class="st5" width="25" height="20"/>
	<rect x="510.4" y="103.6" class="st5" width="25" height="18.6"/>
</g>
<g>
	<rect x="660.4" y="49.7" width="80" height="80"/>
	<rect x="665.7" y="57" class="st5" width="25" height="20"/>
	<rect x="665.4" y="77" class="st4" width="70" height="26.6"/>
	<rect x="710.4" y="57" class="st5" width="25" height="20"/>
	<rect x="665.7" y="103.6" class="st5" width="25" height="18.7"/>
</g>
<g>
	<rect x="60" y="260" width="80" height="80"/>
	<rect x="65.3" y="267.4" class="st3" width="25" height="19.3"/>
	<rect x="110" y="267.4" class="st3" width="25" height="19.3"/>
	<rect x="65" y="286.7" class="st4" width="70" height="26.6"/>
</g>
<g>
	<rect x="260" y="260" width="80" height="80"/>
	<rect x="265.3" y="267.4" class="st3" width="25" height="19.3"/>
	<rect x="265" y="286.7" class="st4" width="70" height="26.6"/>
	<rect x="310" y="267.4" class="st3" width="25" height="19.3"/>
	<rect x="265.3" y="313.3" class="st5" width="25" height="19.2"/>
</g>
<g>
	<rect x="460.4" y="260" width="80" height="80"/>
	<rect x="465.7" y="267.4" class="st5" width="25" height="19.3"/>
	<rect x="465.4" y="286.7" class="st4" width="70" height="26.6"/>
	<rect x="510.4" y="267.4" class="st5" width="25" height="19.3"/>
</g>
<g>
	<rect x="660.4" y="260" width="80" height="80"/>
	<rect x="665.7" y="267.4" class="st5" width="25" height="19.3"/>
	<rect x="665.4" y="286.7" class="st4" width="70" height="26.6"/>
	<rect x="710.4" y="267.4" class="st5" width="25" height="19.3"/>
	<rect x="665.7" y="313.3" class="st3" width="25" height="19.3"/>
</g>
<g>
	<rect x="60" y="460" width="80" height="80"/>
	<rect x="65.3" y="467.4" class="st3" width="25" height="19.3"/>
	<rect x="110" y="467.4" class="st5" width="25" height="19.3"/>
	<rect x="110" y="513.3" class="st3" width="25" height="19.2"/>
	<rect x="65" y="486.7" class="st4" width="70" height="26.6"/>
</g>
<g>
	<rect x="260" y="460" width="80" height="80"/>
	<rect x="265.3" y="467.4" class="st3" width="25" height="19.3"/>
	<rect x="265" y="486.7" class="st4" width="70" height="26.6"/>
	<rect x="265.3" y="513.3" class="st3" width="25" height="19.2"/>
</g>
<g>
	<rect x="460.4" y="460" width="80" height="80"/>
	<rect x="465.4" y="486.7" class="st4" width="70" height="26.6"/>
	<rect x="510.4" y="467.4" class="st5" width="25" height="19.3"/>
	<rect x="510.4" y="513.3" class="st5" width="25" height="19.2"/>
</g>
<g>
	<rect x="660.4" y="460" width="80" height="80"/>
	<rect x="665.7" y="467.4" class="st3" width="25" height="19.3"/>
	<rect x="665.4" y="486.7" class="st4" width="70" height="26.6"/>
	<rect x="710.4" y="467.4" class="st5" width="25" height="19.3"/>
	<rect x="665.7" y="513.3" class="st5" width="25" height="19.3"/>
</g>
</svg>
